<?xml version="1.0" encoding="utf-8" standalone="no"?>
<!DOCTYPE svg PUBLIC "-//W3C//DTD SVG 1.1//EN"
  "http://www.w3.org/Graphics/SVG/1.1/DTD/svg11.dtd">
<svg xmlns:xlink="http://www.w3.org/1999/xlink" width="576pt" height="576pt" viewBox="0 0 576 576" xmlns="http://www.w3.org/2000/svg" version="1.1">
 <metadata>
  <rdf:RDF xmlns:dc="http://purl.org/dc/elements/1.1/" xmlns:cc="http://creativecommons.org/ns#" xmlns:rdf="http://www.w3.org/1999/02/22-rdf-syntax-ns#">
   <cc:Work>
    <dc:type rdf:resource="http://purl.org/dc/dcmitype/StillImage"/>
    <dc:date>2025-10-31T12:42:19.802051</dc:date>
    <dc:format>image/svg+xml</dc:format>
    <dc:creator>
     <cc:Agent>
      <dc:title>Matplotlib v3.10.3, https://matplotlib.org/</dc:title>
     </cc:Agent>
    </dc:creator>
   </cc:Work>
  </rdf:RDF>
 </metadata>
 <defs>
  <style type="text/css">*{stroke-linejoin: round; stroke-linecap: butt}</style>
 </defs>
 <g id="figure_1">
  <g id="patch_1">
   <path d="M 0 576 
L 576 576 
L 576 0 
L 0 0 
L 0 576 
z
" style="fill: none"/>
  </g>
  <g id="axes_1">
   <g id="patch_2">
    <path d="M 91.461728 393.748897 
L 146.961728 354.898897 
L 96.038272 282.151103 
L 40.538272 321.001103 
z
" clip-path="url(#p28f995951e)" style="fill: #e6e6e6; stroke: #e6e6e6; stroke-linejoin: miter"/>
   </g>
   <g id="patch_3">
    <path d="M 66 401.775 
C 77.775018 401.775 89.069346 397.096736 97.395541 388.770541 
C 105.721736 380.444346 110.4 369.150018 110.4 357.375 
C 110.4 345.599982 105.721736 334.305654 97.395541 325.979459 
C 89.069346 317.653264 77.775018 312.975 66 312.975 
C 54.224982 312.975 42.930654 317.653264 34.604459 325.979459 
C 26.278264 334.305654 21.6 345.599982 21.6 357.375 
C 21.6 369.150018 26.278264 380.444346 34.604459 388.770541 
C 42.930654 397.096736 54.224982 401.775 66 401.775 
z
" clip-path="url(#p28f995951e)" style="fill: #e6e6e6; stroke: #e6e6e6; stroke-linejoin: miter"/>
   </g>
   <g id="patch_4">
    <path d="M 155.609025 346.949187 
L 211.109025 280.349187 
L 142.890975 223.500813 
L 87.390975 290.100813 
z
" clip-path="url(#p28f995951e)" style="fill: #e6e6e6; stroke: #e6e6e6; stroke-linejoin: miter"/>
   </g>
   <g id="patch_5">
    <path d="M 121.5 362.925 
C 133.275018 362.925 144.569346 358.246736 152.895541 349.920541 
C 161.221736 341.594346 165.9 330.300018 165.9 318.525 
C 165.9 306.749982 161.221736 295.455654 152.895541 287.129459 
C 144.569346 278.803264 133.275018 274.125 121.5 274.125 
C 109.724982 274.125 98.430654 278.803264 90.104459 287.129459 
C 81.778264 295.455654 77.1 306.749982 77.1 318.525 
C 77.1 330.300018 81.778264 341.594346 90.104459 349.920541 
C 98.430654 358.246736 109.724982 362.925 121.5 362.925 
z
" clip-path="url(#p28f995951e)" style="fill: #e6e6e6; stroke: #e6e6e6; stroke-linejoin: miter"/>
   </g>
   <g id="patch_6">
    <path d="M 202.461728 288.298897 
L 257.961728 249.448897 
L 207.038272 176.701103 
L 151.538272 215.551103 
z
" clip-path="url(#p28f995951e)" style="fill: #e6e6e6; stroke: #e6e6e6; stroke-linejoin: miter"/>
   </g>
   <g id="patch_7">
    <path d="M 177 296.325 
C 188.775018 296.325 200.069346 291.646736 208.395541 283.320541 
C 216.721736 274.994346 221.4 263.700018 221.4 251.925 
C 221.4 240.149982 216.721736 228.855654 208.395541 220.529459 
C 200.069346 212.203264 188.775018 207.525 177 207.525 
C 165.224982 207.525 153.930654 212.203264 145.604459 220.529459 
C 137.278264 228.855654 132.6 240.149982 132.6 251.925 
C 132.6 263.700018 137.278264 274.994346 145.604459 283.320541 
C 153.930654 291.646736 165.224982 296.325 177 296.325 
z
" clip-path="url(#p28f995951e)" style="fill: #e6e6e6; stroke: #e6e6e6; stroke-linejoin: miter"/>
   </g>
   <g id="patch_8">
    <path d="M 266.609025 241.499187 
L 322.109025 174.899187 
L 253.890975 118.050813 
L 198.390975 184.650813 
z
" clip-path="url(#p28f995951e)" style="fill: #e6e6e6; stroke: #e6e6e6; stroke-linejoin: miter"/>
   </g>
   <g id="patch_9">
    <path d="M 232.5 257.475 
C 244.275018 257.475 255.569346 252.796736 263.895541 244.470541 
C 272.221736 236.144346 276.9 224.850018 276.9 213.075 
C 276.9 201.299982 272.221736 190.005654 263.895541 181.679459 
C 255.569346 173.353264 244.275018 168.675 232.5 168.675 
C 220.724982 168.675 209.430654 173.353264 201.104459 181.679459 
C 192.778264 190.005654 188.1 201.299982 188.1 213.075 
C 188.1 224.850018 192.778264 236.144346 201.104459 244.470541 
C 209.430654 252.796736 220.724982 257.475 232.5 257.475 
z
" clip-path="url(#p28f995951e)" style="fill: #e6e6e6; stroke: #e6e6e6; stroke-linejoin: miter"/>
   </g>
   <g id="patch_10">
    <path d="M 317.702034 179.47726 
L 373.202034 129.52726 
L 313.797966 63.52274 
L 258.297966 113.47274 
z
" clip-path="url(#p28f995951e)" style="fill: #e6e6e6; stroke: #e6e6e6; stroke-linejoin: miter"/>
   </g>
   <g id="patch_11">
    <path d="M 288 190.875 
C 299.775018 190.875 311.069346 186.196736 319.395541 177.870541 
C 327.721736 169.544346 332.4 158.250018 332.4 146.475 
C 332.4 134.699982 327.721736 123.405654 319.395541 115.079459 
C 311.069346 106.753264 299.775018 102.075 288 102.075 
C 276.224982 102.075 264.930654 106.753264 256.604459 115.079459 
C 248.278264 123.405654 243.6 134.699982 243.6 146.475 
C 243.6 158.250018 248.278264 169.544346 256.604459 177.870541 
C 264.930654 186.196736 276.224982 190.875 288 190.875 
z
" clip-path="url(#p28f995951e)" style="fill: #e6e6e6; stroke: #e6e6e6; stroke-linejoin: miter"/>
   </g>
   <g id="patch_12">
    <path d="M 343.5 140.925 
C 355.275018 140.925 366.569346 136.246736 374.895541 127.920541 
C 383.221736 119.594346 387.9 108.300018 387.9 96.525 
C 387.9 84.749982 383.221736 73.455654 374.895541 65.129459 
C 366.569346 56.803264 355.275018 52.125 343.5 52.125 
C 331.724982 52.125 320.430654 56.803264 312.104459 65.129459 
C 303.778264 73.455654 299.1 84.749982 299.1 96.525 
C 299.1 108.300018 303.778264 119.594346 312.104459 127.920541 
C 320.430654 136.246736 331.724982 140.925 343.5 140.925 
z
" clip-path="url(#p28f995951e)" style="fill: #e6e6e6; stroke: #e6e6e6; stroke-linejoin: miter"/>
   </g>
   <g id="patch_13">
    <path d="M 269.445541 510.870541 
L 319.395541 460.920541 
L 256.604459 398.129459 
L 206.654459 448.079459 
z
" clip-path="url(#p28f995951e)" style="fill: #e6e6e6; stroke: #e6e6e6; stroke-linejoin: miter"/>
   </g>
   <g id="patch_14">
    <path d="M 238.05 523.875 
C 249.825018 523.875 261.119346 519.196736 269.445541 510.870541 
C 277.771736 502.544346 282.45 491.250018 282.45 479.475 
C 282.45 467.699982 277.771736 456.405654 269.445541 448.079459 
C 261.119346 439.753264 249.825018 435.075 238.05 435.075 
C 226.274982 435.075 214.980654 439.753264 206.654459 448.079459 
C 198.328264 456.405654 193.65 467.699982 193.65 479.475 
C 193.65 491.250018 198.328264 502.544346 206.654459 510.870541 
C 214.980654 519.196736 226.274982 523.875 238.05 523.875 
z
" clip-path="url(#p28f995951e)" style="fill: #e6e6e6; stroke: #e6e6e6; stroke-linejoin: miter"/>
   </g>
   <g id="patch_15">
    <path d="M 315.071158 464.717505 
L 387.221158 409.217505 
L 333.078842 338.832495 
L 260.928842 394.332495 
z
" clip-path="url(#p28f995951e)" style="fill: #e6e6e6; stroke: #e6e6e6; stroke-linejoin: miter"/>
   </g>
   <g id="patch_16">
    <path d="M 288 473.925 
C 299.775018 473.925 311.069346 469.246736 319.395541 460.920541 
C 327.721736 452.594346 332.4 441.300018 332.4 429.525 
C 332.4 417.749982 327.721736 406.455654 319.395541 398.129459 
C 311.069346 389.803264 299.775018 385.125 288 385.125 
C 276.224982 385.125 264.930654 389.803264 256.604459 398.129459 
C 248.278264 406.455654 243.6 417.749982 243.6 429.525 
C 243.6 441.300018 248.278264 452.594346 256.604459 460.920541 
C 264.930654 469.246736 276.224982 473.925 288 473.925 
z
" clip-path="url(#p28f995951e)" style="fill: #e6e6e6; stroke: #e6e6e6; stroke-linejoin: miter"/>
   </g>
   <g id="patch_17">
    <path d="M 395.197238 401.283963 
L 434.047238 351.333963 
L 363.952762 296.816037 
L 325.102762 346.766037 
z
" clip-path="url(#p28f995951e)" style="fill: #e6e6e6; stroke: #e6e6e6; stroke-linejoin: miter"/>
   </g>
   <g id="patch_18">
    <path d="M 360.15 418.425 
C 371.925018 418.425 383.219346 413.746736 391.545541 405.420541 
C 399.871736 397.094346 404.55 385.800018 404.55 374.025 
C 404.55 362.249982 399.871736 350.955654 391.545541 342.629459 
C 383.219346 334.303264 371.925018 329.625 360.15 329.625 
C 348.374982 329.625 337.080654 334.303264 328.754459 342.629459 
C 320.428264 350.955654 315.75 362.249982 315.75 374.025 
C 315.75 385.800018 320.428264 397.094346 328.754459 405.420541 
C 337.080654 413.746736 348.374982 418.425 360.15 418.425 
z
" clip-path="url(#p28f995951e)" style="fill: #e6e6e6; stroke: #e6e6e6; stroke-linejoin: miter"/>
   </g>
   <g id="patch_19">
    <path d="M 430.395541 355.470541 
L 491.445541 294.420541 
L 428.654459 231.629459 
L 367.604459 292.679459 
z
" clip-path="url(#p28f995951e)" style="fill: #e6e6e6; stroke: #e6e6e6; stroke-linejoin: miter"/>
   </g>
   <g id="patch_20">
    <path d="M 399 368.475 
C 410.775018 368.475 422.069346 363.796736 430.395541 355.470541 
C 438.721736 347.144346 443.4 335.850018 443.4 324.075 
C 443.4 312.299982 438.721736 301.005654 430.395541 292.679459 
C 422.069346 284.353264 410.775018 279.675 399 279.675 
C 387.224982 279.675 375.930654 284.353264 367.604459 292.679459 
C 359.278264 301.005654 354.6 312.299982 354.6 324.075 
C 354.6 335.850018 359.278264 347.144346 367.604459 355.470541 
C 375.930654 363.796736 387.224982 368.475 399 368.475 
z
" clip-path="url(#p28f995951e)" style="fill: #e6e6e6; stroke: #e6e6e6; stroke-linejoin: miter"/>
   </g>
   <g id="patch_21">
    <path d="M 493.05226 292.727034 
L 543.00226 237.227034 
L 476.99774 177.822966 
L 427.04774 233.322966 
z
" clip-path="url(#p28f995951e)" style="fill: #e6e6e6; stroke: #e6e6e6; stroke-linejoin: miter"/>
   </g>
   <g id="patch_22">
    <path d="M 460.05 307.425 
C 471.825018 307.425 483.119346 302.746736 491.445541 294.420541 
C 499.771736 286.094346 504.45 274.800018 504.45 263.025 
C 504.45 251.249982 499.771736 239.955654 491.445541 231.629459 
C 483.119346 223.303264 471.825018 218.625 460.05 218.625 
C 448.274982 218.625 436.980654 223.303264 428.654459 231.629459 
C 420.328264 239.955654 415.65 251.249982 415.65 263.025 
C 415.65 274.800018 420.328264 286.094346 428.654459 294.420541 
C 436.980654 302.746736 448.274982 307.425 460.05 307.425 
z
" clip-path="url(#p28f995951e)" style="fill: #e6e6e6; stroke: #e6e6e6; stroke-linejoin: miter"/>
   </g>
   <g id="patch_23">
    <path d="M 510 251.925 
C 521.775018 251.925 533.069346 247.246736 541.395541 238.920541 
C 549.721736 230.594346 554.4 219.300018 554.4 207.525 
C 554.4 195.749982 549.721736 184.455654 541.395541 176.129459 
C 533.069346 167.803264 521.775018 163.125 510 163.125 
C 498.224982 163.125 486.930654 167.803264 478.604459 176.129459 
C 470.278264 184.455654 465.6 195.749982 465.6 207.525 
C 465.6 219.300018 470.278264 230.594346 478.604459 238.920541 
C 486.930654 247.246736 498.224982 251.925 510 251.925 
z
" clip-path="url(#p28f995951e)" style="fill: #e6e6e6; stroke: #e6e6e6; stroke-linejoin: miter"/>
   </g>
   <g id="PathCollection_1">
    <defs>
     <path id="m355f9d99ab" d="M -4.472136 0 
L 4.472136 0 
M 0 4.472136 
L 0 -4.472136 
" style="stroke: #000000; stroke-width: 1.5"/>
    </defs>
    <g clip-path="url(#p28f995951e)">
     <use xlink:href="#m355f9d99ab" x="66" y="357.375" style="stroke: #000000; stroke-width: 1.5"/>
     <use xlink:href="#m355f9d99ab" x="121.5" y="318.525" style="stroke: #000000; stroke-width: 1.5"/>
     <use xlink:href="#m355f9d99ab" x="177" y="251.925" style="stroke: #000000; stroke-width: 1.5"/>
     <use xlink:href="#m355f9d99ab" x="232.5" y="213.075" style="stroke: #000000; stroke-width: 1.5"/>
     <use xlink:href="#m355f9d99ab" x="288" y="146.475" style="stroke: #000000; stroke-width: 1.5"/>
     <use xlink:href="#m355f9d99ab" x="343.5" y="96.525" style="stroke: #000000; stroke-width: 1.5"/>
     <use xlink:href="#m355f9d99ab" x="238.05" y="479.475" style="stroke: #000000; stroke-width: 1.5"/>
     <use xlink:href="#m355f9d99ab" x="288" y="429.525" style="stroke: #000000; stroke-width: 1.5"/>
     <use xlink:href="#m355f9d99ab" x="360.15" y="374.025" style="stroke: #000000; stroke-width: 1.5"/>
     <use xlink:href="#m355f9d99ab" x="399" y="324.075" style="stroke: #000000; stroke-width: 1.5"/>
     <use xlink:href="#m355f9d99ab" x="460.05" y="263.025" style="stroke: #000000; stroke-width: 1.5"/>
     <use xlink:href="#m355f9d99ab" x="510" y="207.525" style="stroke: #000000; stroke-width: 1.5"/>
    </g>
   </g>
   <g id="line2d_1">
    <path d="M 66 357.375 
L 68.612636 359.363543 
L 69.874802 359.422844 
L 69.45296 357.076419 
L 68.281664 353.659345 
L 67.859822 351.31292 
L 69.121988 351.372221 
L 71.734623 353.360764 
L 74.347259 355.349306 
L 75.609425 355.408607 
L 75.187583 353.062182 
L 74.016287 349.645109 
L 73.594445 347.298684 
L 74.856611 347.357984 
L 77.469247 349.346527 
L 80.081882 351.33507 
L 81.344049 351.394371 
L 80.922207 349.047946 
L 79.750911 345.630872 
L 79.329069 343.284447 
L 80.591235 343.343748 
L 83.20387 345.332291 
L 85.816506 347.320834 
L 87.078672 347.380134 
L 86.65683 345.033709 
L 85.485534 341.616636 
L 85.063692 339.270211 
L 86.325858 339.329511 
L 88.938494 341.318054 
L 91.551129 343.306597 
L 92.813295 343.365898 
L 92.391453 341.019473 
L 91.220158 337.602399 
L 90.798316 335.255974 
L 92.060482 335.315275 
L 94.673117 337.303818 
L 97.285753 339.292361 
L 98.547919 339.351662 
L 98.126077 337.005237 
L 96.954781 333.588163 
L 96.532939 331.241738 
L 97.795105 331.301039 
L 100.407741 333.289582 
L 103.020376 335.278124 
L 104.282542 335.337425 
L 103.8607 332.991 
L 102.689404 329.573927 
L 102.267562 327.227502 
L 103.529729 327.286802 
L 106.142364 329.275345 
L 108.755 331.263888 
L 110.017166 331.323189 
L 109.595324 328.976764 
L 108.424028 325.55969 
L 108.002186 323.213265 
L 109.264352 323.272566 
L 111.876988 325.261109 
L 114.489623 327.249652 
L 115.751789 327.308952 
L 115.329947 324.962527 
L 114.158651 321.545454 
L 113.736809 319.199029 
L 114.998975 319.258329 
L 117.611611 321.246872 
L 120.224247 323.235415 
L 121.486413 323.294716 
L 121.064571 320.948291 
L 120.504736 317.103194 
L 119.144343 315.260244 
L 120.37789 314.986492 
L 123.420553 316.220336 
L 126.463216 317.45418 
L 127.696763 317.180428 
L 126.674381 315.026735 
L 124.648016 312.036389 
L 123.625634 309.882695 
L 124.859181 309.608943 
L 127.901844 310.842787 
L 130.944507 312.076631 
L 132.178054 311.802879 
L 131.155672 309.649186 
L 129.129307 306.65884 
L 128.106925 304.505146 
L 129.340472 304.231394 
L 132.383135 305.465238 
L 135.425798 306.699082 
L 136.659345 306.42533 
L 135.636963 304.271637 
L 133.610598 301.281291 
L 132.588215 299.127597 
L 133.821763 298.853845 
L 136.864426 300.087689 
L 139.907088 301.321533 
L 141.140636 301.047781 
L 140.118254 298.894088 
L 138.091888 295.903742 
L 137.069506 293.750048 
L 138.303054 293.476296 
L 141.345716 294.71014 
L 144.388379 295.943984 
L 145.621927 295.670232 
L 144.599544 293.516539 
L 142.573179 290.526193 
L 141.550797 288.372499 
L 142.784344 288.098747 
L 145.827007 289.332591 
L 148.86967 290.566435 
L 150.103217 290.292683 
L 149.080835 288.13899 
L 147.05447 285.148644 
L 146.032088 282.99495 
L 147.265635 282.721198 
L 150.308298 283.955042 
L 153.350961 285.188886 
L 154.584508 284.915134 
L 153.562126 282.761441 
L 151.535761 279.771095 
L 150.513379 277.617401 
L 151.746926 277.343649 
L 154.789589 278.577493 
L 157.832252 279.811337 
L 159.065799 279.537585 
L 158.043417 277.383892 
L 156.017051 274.393546 
L 154.994669 272.239853 
L 156.228217 271.966101 
L 159.27088 273.199945 
L 162.313542 274.433788 
L 163.54709 274.160037 
L 162.524708 272.006343 
L 160.498342 269.015997 
L 159.47596 266.862304 
L 160.709508 266.588552 
L 163.75217 267.822396 
L 166.794833 269.05624 
L 168.028381 268.782488 
L 167.005998 266.628794 
L 164.979633 263.638448 
L 163.957251 261.484755 
L 165.190798 261.211003 
L 168.233461 262.444847 
L 171.276124 263.678691 
L 172.509671 263.404939 
L 171.487289 261.251245 
L 169.460924 258.260899 
L 168.438542 256.107206 
L 169.672089 255.833454 
L 172.714752 257.067298 
L 175.757415 258.301142 
L 176.990962 258.02739 
L 175.96858 255.873696 
L 173.942215 252.88335 
L 172.919832 250.729657 
L 174.597522 249.922935 
L 177.819232 251.351538 
L 180.431868 253.340081 
L 181.694034 253.399381 
L 181.272192 251.052956 
L 180.100896 247.635883 
L 179.679054 245.289458 
L 180.94122 245.348758 
L 183.553855 247.337301 
L 186.166491 249.325844 
L 187.428657 249.385145 
L 187.006815 247.03872 
L 185.835519 243.621646 
L 185.413677 241.275221 
L 186.675843 241.334522 
L 189.288479 243.323065 
L 191.901114 245.311608 
L 193.16328 245.370908 
L 192.741439 243.024483 
L 191.570143 239.60741 
L 191.148301 237.260985 
L 192.410467 237.320286 
L 195.023102 239.308828 
L 197.635738 241.297371 
L 198.897904 241.356672 
L 198.476062 239.010247 
L 197.304766 235.593173 
L 196.882924 233.246748 
L 198.14509 233.306049 
L 200.757726 235.294592 
L 203.370361 237.283135 
L 204.632527 237.342436 
L 204.210685 234.996011 
L 203.039389 231.578937 
L 202.617548 229.232512 
L 203.879714 229.291813 
L 206.492349 231.280356 
L 209.104985 233.268898 
L 210.367151 233.328199 
L 209.945309 230.981774 
L 208.774013 227.564701 
L 208.352171 225.218276 
L 209.614337 225.277576 
L 212.226973 227.266119 
L 214.839608 229.254662 
L 216.101774 229.313963 
L 215.679932 226.967538 
L 214.508636 223.550464 
L 214.086794 221.204039 
L 215.34896 221.26334 
L 217.961596 223.251883 
L 220.574232 225.240426 
L 221.836398 225.299726 
L 221.414556 222.953301 
L 220.24326 219.536228 
L 219.821418 217.189803 
L 221.083584 217.249103 
L 223.696219 219.237646 
L 226.308855 221.226189 
L 227.571021 221.28549 
L 227.149179 218.939065 
L 225.977883 215.521991 
L 225.556041 213.175566 
L 226.818207 213.234867 
L 229.430843 215.22341 
L 232.043478 217.211953 
L 233.305645 217.271254 
L 233.495264 214.496806 
L 231.80691 211.195716 
L 230.784527 209.042023 
L 232.018075 208.768271 
L 235.060738 210.002115 
L 238.1034 211.235959 
L 239.336948 210.962207 
L 238.314566 208.808513 
L 236.2882 205.818167 
L 235.265818 203.664474 
L 236.499366 203.390722 
L 239.542028 204.624566 
L 242.584691 205.85841 
L 243.818239 205.584658 
L 242.795856 203.430964 
L 240.769491 200.440618 
L 239.747109 198.286925 
L 240.980656 198.013173 
L 244.023319 199.247017 
L 247.065982 200.480861 
L 248.299529 200.207109 
L 247.277147 198.053416 
L 245.250782 195.063069 
L 244.2284 192.909376 
L 245.461947 192.635624 
L 248.50461 193.869468 
L 251.547273 195.103312 
L 252.78082 194.82956 
L 251.758438 192.675867 
L 249.732073 189.68552 
L 248.709691 187.531827 
L 249.943238 187.258075 
L 252.985901 188.491919 
L 256.028564 189.725763 
L 257.262111 189.452011 
L 256.239729 187.298318 
L 254.213364 184.307972 
L 253.190981 182.154278 
L 254.424529 181.880526 
L 257.467192 183.11437 
L 260.509854 184.348214 
L 261.743402 184.074462 
L 260.72102 181.920769 
L 258.694654 178.930423 
L 257.672272 176.776729 
L 258.90582 176.502977 
L 261.948482 177.736821 
L 264.991145 178.970665 
L 266.224693 178.696913 
L 265.20231 176.54322 
L 263.175945 173.552874 
L 262.153563 171.39918 
L 263.38711 171.125428 
L 266.429773 172.359272 
L 269.472436 173.593116 
L 270.705983 173.319364 
L 269.683601 171.165671 
L 267.657236 168.175325 
L 266.634854 166.021631 
L 267.868401 165.747879 
L 270.911064 166.981723 
L 273.953727 168.215567 
L 275.187274 167.941815 
L 274.164892 165.788122 
L 272.138527 162.797776 
L 271.116145 160.644082 
L 272.349692 160.37033 
L 275.392355 161.604174 
L 278.435018 162.838018 
L 279.668565 162.564266 
L 278.646183 160.410573 
L 276.619817 157.420227 
L 275.597435 155.266533 
L 276.830983 154.992781 
L 279.873646 156.226625 
L 282.916308 157.460469 
L 284.149856 157.186717 
L 283.127474 155.033024 
L 281.101108 152.042678 
L 280.078726 149.888984 
L 281.312274 149.615232 
L 284.354936 150.849076 
L 287.397599 152.08292 
L 288.631147 151.809168 
L 287.608764 149.655475 
L 285.582399 146.665129 
L 285.004159 143.978465 
L 286.651223 143.481512 
L 289.486588 145.137071 
L 292.321953 146.792629 
L 293.581946 146.697774 
L 292.877482 144.420189 
L 291.298753 141.171199 
L 290.594289 138.893614 
L 291.854282 138.798759 
L 294.689647 140.454317 
L 297.525012 142.109876 
L 298.785005 142.015021 
L 298.080541 139.737436 
L 296.501812 136.488446 
L 295.797348 134.210861 
L 297.057341 134.116006 
L 299.892706 135.771564 
L 302.728071 137.427123 
L 303.988064 137.332268 
L 303.2836 135.054683 
L 301.704871 131.805692 
L 301.000408 129.528108 
L 302.2604 129.433253 
L 305.095765 131.088811 
L 307.93113 132.744369 
L 309.191123 132.649515 
L 308.486659 130.37193 
L 306.90793 127.122939 
L 306.203467 124.845355 
L 307.463459 124.7505 
L 310.298824 126.406058 
L 313.134189 128.061616 
L 314.394182 127.966761 
L 313.689719 125.689177 
L 312.110989 122.440186 
L 311.406526 120.162602 
L 312.666519 120.067747 
L 315.501883 121.723305 
L 318.337248 123.378863 
L 319.597241 123.284008 
L 318.892778 121.006424 
L 317.314048 117.757433 
L 316.609585 115.479848 
L 317.869578 115.384993 
L 320.704942 117.040552 
L 323.540307 118.69611 
L 324.8003 118.601255 
L 324.095837 116.323671 
L 322.517107 113.07468 
L 321.812644 110.797095 
L 323.072637 110.70224 
L 325.908001 112.357799 
L 328.743366 114.013357 
L 330.003359 113.918502 
L 329.298896 111.640917 
L 327.720166 108.391927 
L 327.015703 106.114342 
L 328.275696 106.019487 
L 331.11106 107.675046 
L 333.946425 109.330604 
L 335.206418 109.235749 
L 334.501955 106.958164 
L 332.923225 103.709174 
L 332.218762 101.431589 
L 333.478755 101.336734 
L 336.31412 102.992292 
L 339.149484 104.647851 
L 340.409477 104.552996 
L 339.705014 102.275411 
L 338.126284 99.026421 
L 337.421821 96.748836 
L 338.681814 96.653981 
L 341.517179 98.309539 
L 344.352543 99.965098 
L 346.10877 99.423633 
" clip-path="url(#p28f995951e)" style="fill: none; stroke: #808080; stroke-linecap: square"/>
   </g>
   <g id="line2d_2">
    <path d="M 238.05 479.475 
L 240.96846 480.979247 
L 242.221726 480.818299 
L 241.398529 478.580888 
L 239.651219 475.419364 
L 238.828021 473.181954 
L 240.081287 473.021006 
L 242.999747 474.525253 
L 245.918208 476.029499 
L 247.171474 475.868552 
L 246.348276 473.631141 
L 244.600966 470.469617 
L 243.777769 468.232206 
L 245.031035 468.071258 
L 247.949495 469.575505 
L 250.867955 471.079752 
L 252.121221 470.918804 
L 251.298024 468.681393 
L 249.550714 465.519869 
L 248.727516 463.282459 
L 249.980782 463.121511 
L 252.899242 464.625758 
L 255.817703 466.130004 
L 257.070969 465.969057 
L 256.247771 463.731646 
L 254.500461 460.570122 
L 253.677264 458.332711 
L 254.93053 458.171764 
L 257.84899 459.67601 
L 260.76745 461.180257 
L 262.020716 461.019309 
L 261.197519 458.781898 
L 259.450208 455.620374 
L 258.627011 453.382964 
L 259.880277 453.222016 
L 262.798737 454.726263 
L 265.717197 456.230509 
L 266.970463 456.069562 
L 266.147266 453.832151 
L 264.399956 450.670627 
L 263.576759 448.433216 
L 264.830025 448.272269 
L 267.748485 449.776515 
L 270.666945 451.280762 
L 271.920211 451.119814 
L 271.097014 448.882403 
L 269.349703 445.72088 
L 268.526506 443.483469 
L 269.779772 443.322521 
L 272.698232 444.826768 
L 275.616692 446.331014 
L 276.869958 446.170067 
L 276.046761 443.932656 
L 274.299451 440.771132 
L 273.476254 438.533721 
L 274.72952 438.372774 
L 277.64798 439.87702 
L 280.56644 441.381267 
L 281.819706 441.220319 
L 280.996509 438.982908 
L 279.249198 435.821385 
L 278.426001 433.583974 
L 279.679267 433.423026 
L 282.597727 434.927273 
L 285.516187 436.431519 
L 286.769453 436.270572 
L 285.946256 434.033161 
L 284.198946 430.871637 
L 283.375749 428.634226 
L 284.629015 428.473279 
L 288 429.525 
L 290.699388 431.394083 
L 291.962944 431.396583 
L 291.436046 429.071494 
L 290.112322 425.71053 
L 289.585424 423.385441 
L 290.84898 423.387942 
L 293.548368 425.257025 
L 296.247756 427.126107 
L 297.511312 427.128608 
L 296.984414 424.803519 
L 295.66069 421.442555 
L 295.133792 419.117466 
L 296.397348 419.119967 
L 299.096736 420.989049 
L 301.796124 422.858132 
L 303.05968 422.860633 
L 302.532782 420.535544 
L 301.209057 417.17458 
L 300.68216 414.849491 
L 301.945716 414.851991 
L 304.645104 416.721074 
L 307.344492 418.590157 
L 308.608048 418.592658 
L 308.08115 416.267568 
L 306.757425 412.906604 
L 306.230528 410.581515 
L 307.494083 410.584016 
L 310.193472 412.453099 
L 312.89286 414.322181 
L 314.156416 414.324682 
L 313.629518 411.999593 
L 312.305793 408.638629 
L 311.778895 406.31354 
L 313.042451 406.316041 
L 315.74184 408.185123 
L 318.441228 410.054206 
L 319.704784 410.056707 
L 319.177886 407.731618 
L 317.854161 404.370654 
L 317.327263 402.045565 
L 318.590819 402.048065 
L 321.290208 403.917148 
L 323.989596 405.786231 
L 325.253152 405.788732 
L 324.726254 403.463642 
L 323.402529 400.102678 
L 322.875631 397.777589 
L 324.139187 397.78009 
L 326.838575 399.649173 
L 329.537964 401.518256 
L 330.80152 401.520756 
L 330.274622 399.195667 
L 328.950897 395.834703 
L 328.423999 393.509614 
L 329.687555 393.512115 
L 332.386943 395.381197 
L 335.086332 397.25028 
L 336.349888 397.252781 
L 335.82299 394.927692 
L 334.499265 391.566728 
L 333.972367 389.241639 
L 335.235923 389.244139 
L 337.935311 391.113222 
L 340.6347 392.982305 
L 341.898255 392.984806 
L 341.371358 390.659716 
L 340.047633 387.298752 
L 339.520735 384.973663 
L 340.784291 384.976164 
L 343.483679 386.845247 
L 346.183067 388.71433 
L 347.446623 388.71683 
L 346.919726 386.391741 
L 345.596001 383.030777 
L 345.069103 380.705688 
L 346.332659 380.708189 
L 349.032047 382.577271 
L 351.731435 384.446354 
L 352.994991 384.448855 
L 352.468093 382.123766 
L 351.144369 378.762802 
L 350.617471 376.437713 
L 351.881027 376.440213 
L 354.580415 378.309296 
L 357.279803 380.178379 
L 358.543359 380.18088 
L 358.016461 377.85579 
L 356.692737 374.494826 
L 356.165839 372.169737 
L 357.429395 372.172238 
L 360.15 374.025 
L 363.232502 375.15564 
L 364.456127 374.840487 
L 363.36177 372.722459 
L 361.235814 369.802076 
L 360.141457 367.684048 
L 361.365082 367.368894 
L 364.447584 368.499534 
L 367.530087 369.630175 
L 368.753712 369.315021 
L 367.659355 367.196993 
L 365.533398 364.27661 
L 364.439041 362.158582 
L 365.662666 361.843429 
L 368.745169 362.974069 
L 371.827671 364.104709 
L 373.051296 363.789556 
L 371.956939 361.671528 
L 369.830983 358.751145 
L 368.736626 356.633117 
L 369.960251 356.317963 
L 373.042753 357.448603 
L 376.125255 358.579244 
L 377.34888 358.26409 
L 376.254523 356.146062 
L 374.128567 353.225679 
L 373.03421 351.107651 
L 374.257835 350.792498 
L 377.340337 351.923138 
L 380.422839 353.053778 
L 381.646464 352.738625 
L 380.552107 350.620597 
L 378.426151 347.700214 
L 377.331794 345.582185 
L 378.555419 345.267032 
L 381.637921 346.397672 
L 384.720424 347.528313 
L 385.944049 347.213159 
L 384.849692 345.095131 
L 382.723736 342.174748 
L 381.629379 340.05672 
L 382.853003 339.741567 
L 385.935506 340.872207 
L 389.018008 342.002847 
L 390.241633 341.687694 
L 389.147276 339.569666 
L 387.02132 336.649283 
L 385.926963 334.531254 
L 387.150588 334.216101 
L 390.23309 335.346741 
L 393.315592 336.477382 
L 394.539217 336.162228 
L 393.44486 334.0442 
L 391.318904 331.123817 
L 390.224547 329.005789 
L 391.448172 328.690636 
L 394.530674 329.821276 
L 397.613177 330.951916 
L 398.836802 330.636763 
L 397.742445 328.518735 
L 395.616488 325.598352 
L 394.522131 323.480323 
L 395.745756 323.16517 
L 399 324.075 
L 401.91846 325.579247 
L 403.171726 325.418299 
L 402.348529 323.180888 
L 400.601219 320.019364 
L 399.778021 317.781954 
L 401.031287 317.621006 
L 403.949747 319.125253 
L 406.868208 320.629499 
L 408.121474 320.468552 
L 407.298276 318.231141 
L 405.550966 315.069617 
L 404.727769 312.832206 
L 405.981035 312.671258 
L 408.899495 314.175505 
L 411.817955 315.679752 
L 413.071221 315.518804 
L 412.248024 313.281393 
L 410.500714 310.119869 
L 409.677516 307.882459 
L 410.930782 307.721511 
L 413.849242 309.225758 
L 416.767703 310.730004 
L 418.020969 310.569057 
L 417.197771 308.331646 
L 415.450461 305.170122 
L 414.627264 302.932711 
L 415.88053 302.771764 
L 418.79899 304.27601 
L 421.71745 305.780257 
L 422.970716 305.619309 
L 422.147519 303.381898 
L 420.400208 300.220374 
L 419.577011 297.982964 
L 420.830277 297.822016 
L 423.748737 299.326263 
L 426.667197 300.830509 
L 427.920463 300.669562 
L 427.097266 298.432151 
L 425.349956 295.270627 
L 424.526759 293.033216 
L 425.780025 292.872269 
L 428.698485 294.376515 
L 431.616945 295.880762 
L 432.870211 295.719814 
L 432.047014 293.482403 
L 430.299703 290.32088 
L 429.476506 288.083469 
L 430.729772 287.922521 
L 433.648232 289.426768 
L 436.566692 290.931014 
L 437.819958 290.770067 
L 436.996761 288.532656 
L 435.249451 285.371132 
L 434.426254 283.133721 
L 435.67952 282.972774 
L 438.59798 284.47702 
L 441.51644 285.981267 
L 442.769706 285.820319 
L 441.946509 283.582908 
L 440.199198 280.421385 
L 439.376001 278.183974 
L 440.629267 278.023026 
L 443.547727 279.527273 
L 446.466187 281.031519 
L 447.719453 280.870572 
L 446.896256 278.633161 
L 445.148946 275.471637 
L 444.325749 273.234226 
L 445.579015 273.073279 
L 448.497475 274.577525 
L 451.415935 276.081772 
L 452.669201 275.920824 
L 451.846004 273.683414 
L 450.098693 270.52189 
L 449.275496 268.284479 
L 450.528762 268.123531 
L 453.447222 269.627778 
L 456.365682 271.132024 
L 457.618948 270.971077 
L 456.795751 268.733666 
L 455.048441 265.572142 
L 454.225244 263.334731 
L 455.478509 263.173784 
L 458.39697 264.67803 
L 461.31543 266.182277 
L 462.807513 265.782513 
L 462.008978 263.442718 
L 460.097916 260.3774 
L 459.158261 258.186348 
L 460.401336 257.959753 
L 463.394824 259.308529 
L 466.388311 260.657306 
L 467.631386 260.430711 
L 466.691731 258.239659 
L 464.78067 255.174341 
L 463.841014 252.983289 
L 465.084089 252.756694 
L 468.077577 254.10547 
L 471.071065 255.454247 
L 472.314139 255.227652 
L 471.374484 253.036599 
L 469.463423 249.971282 
L 468.523768 247.78023 
L 469.766842 247.553635 
L 472.76033 248.902411 
L 475.753818 250.251188 
L 476.996892 250.024592 
L 476.057237 247.83354 
L 474.146176 244.768223 
L 473.206521 242.577171 
L 474.449595 242.350576 
L 477.443083 243.699352 
L 480.436571 245.048129 
L 481.679645 244.821533 
L 480.73999 242.630481 
L 478.828929 239.565164 
L 477.889274 237.374112 
L 479.132348 237.147517 
L 482.125836 238.496293 
L 485.119324 239.84507 
L 486.362398 239.618474 
L 485.422743 237.427422 
L 483.511682 234.362105 
L 482.572027 232.171053 
L 483.815101 231.944458 
L 486.808589 233.293234 
L 489.802077 234.642011 
L 491.045152 234.415415 
L 490.105496 232.224363 
L 488.194435 229.159046 
L 487.25478 226.967994 
L 488.497855 226.741399 
L 491.491342 228.090175 
L 494.48483 229.438952 
L 495.727905 229.212356 
L 494.78825 227.021304 
L 492.877188 223.955987 
L 491.937533 221.764935 
L 493.180608 221.538339 
L 496.174096 222.887116 
L 499.167583 224.235893 
L 500.410658 224.009297 
L 499.471003 221.818245 
L 497.559941 218.752928 
L 496.620286 216.561876 
L 497.863361 216.33528 
L 500.856849 217.684057 
L 503.850336 219.032834 
L 505.093411 218.806238 
L 504.153756 216.615186 
L 502.242695 213.549869 
L 501.303039 211.358817 
L 502.546114 211.132221 
L 505.539602 212.480998 
L 508.53309 213.829775 
L 509.776164 213.603179 
L 508.836509 211.412127 
L 506.925448 208.34681 
L 505.985793 206.155758 
L 507.675477 205.432929 
" clip-path="url(#p28f995951e)" style="fill: none; stroke: #808080; stroke-linecap: square"/>
   </g>
   <g id="line2d_3">
    <path d="M 66 357.375 
L 238.05 479.475 
" clip-path="url(#p28f995951e)" style="fill: none; stroke-dasharray: 5.55,2.4; stroke-dashoffset: 0; stroke: #e8702a; stroke-width: 1.5"/>
   </g>
   <g id="line2d_4">
    <path d="M 121.5 318.525 
L 260.25 457.275 
" clip-path="url(#p28f995951e)" style="fill: none; stroke-dasharray: 5.55,2.4; stroke-dashoffset: 0; stroke: #e8702a; stroke-width: 1.5"/>
   </g>
   <g id="line2d_5">
    <path d="M 177 251.925 
L 304.092937 417.145818 
" clip-path="url(#p28f995951e)" style="fill: none; stroke-dasharray: 5.55,2.4; stroke-dashoffset: 0; stroke: #e8702a; stroke-width: 1.5"/>
   </g>
   <g id="line2d_6">
    <path d="M 232.5 213.075 
L 390.034615 335.601923 
" clip-path="url(#p28f995951e)" style="fill: none; stroke-dasharray: 5.55,2.4; stroke-dashoffset: 0; stroke: #e8702a; stroke-width: 1.5"/>
   </g>
   <g id="line2d_7">
    <path d="M 288 146.475 
L 432.3 290.775 
" clip-path="url(#p28f995951e)" style="fill: none; stroke-dasharray: 5.55,2.4; stroke-dashoffset: 0; stroke: #e8702a; stroke-width: 1.5"/>
   </g>
   <g id="line2d_8">
    <path d="M 343.5 96.525 
L 490.68232 228.989088 
" clip-path="url(#p28f995951e)" style="fill: none; stroke-dasharray: 5.55,2.4; stroke-dashoffset: 0; stroke: #e8702a; stroke-width: 1.5"/>
   </g>
  </g>
 </g>
 <defs>
  <clipPath id="p28f995951e">
   <rect x="21.6" y="21.6" width="532.8" height="532.8"/>
  </clipPath>
 </defs>
</svg>
