<?xml version="1.0" encoding="utf-8" standalone="no"?>
<!DOCTYPE svg PUBLIC "-//W3C//DTD SVG 1.1//EN"
  "http://www.w3.org/Graphics/SVG/1.1/DTD/svg11.dtd">
<svg xmlns:xlink="http://www.w3.org/1999/xlink" width="576pt" height="576pt" viewBox="0 0 576 576" xmlns="http://www.w3.org/2000/svg" version="1.1">
 <metadata>
  <rdf:RDF xmlns:dc="http://purl.org/dc/elements/1.1/" xmlns:cc="http://creativecommons.org/ns#" xmlns:rdf="http://www.w3.org/1999/02/22-rdf-syntax-ns#">
   <cc:Work>
    <dc:type rdf:resource="http://purl.org/dc/dcmitype/StillImage"/>
    <dc:date>2025-10-31T12:42:19.691346</dc:date>
    <dc:format>image/svg+xml</dc:format>
    <dc:creator>
     <cc:Agent>
      <dc:title>Matplotlib v3.10.3, https://matplotlib.org/</dc:title>
     </cc:Agent>
    </dc:creator>
   </cc:Work>
  </rdf:RDF>
 </metadata>
 <defs>
  <style type="text/css">*{stroke-linejoin: round; stroke-linecap: butt}</style>
 </defs>
 <g id="figure_1">
  <g id="patch_1">
   <path d="M 0 576 
L 576 576 
L 576 0 
L 0 0 
L 0 576 
z
" style="fill: none"/>
  </g>
  <g id="axes_1">
   <g id="patch_2">
    <path d="M 123.217059 542.169748 
L 203.944332 482.969748 
L 129.87385 372.115966 
L 49.146577 431.315966 
z
" clip-path="url(#p8e59fde14a)" style="fill: #e6e6e6; stroke: #e6e6e6; stroke-linejoin: miter"/>
   </g>
   <g id="patch_3">
    <path d="M 86.181818 554.4 
C 103.309117 554.4 119.737231 547.271217 131.84806 534.583682 
C 143.958889 521.896147 150.763636 504.685741 150.763636 486.742857 
C 150.763636 468.799973 143.958889 451.589568 131.84806 438.902033 
C 119.737231 426.214498 103.309117 419.085714 86.181818 419.085714 
C 69.05452 419.085714 52.626405 426.214498 40.515577 438.902033 
C 28.404748 451.589568 21.6 468.799973 21.6 486.742857 
C 21.6 504.685741 28.404748 521.896147 40.515577 534.583682 
C 52.626405 547.271217 69.05452 554.4 86.181818 554.4 
z
" clip-path="url(#p8e59fde14a)" style="fill: #e6e6e6; stroke: #e6e6e6; stroke-linejoin: miter"/>
   </g>
   <g id="patch_4">
    <path d="M 216.522218 470.855905 
L 297.249491 369.37019 
L 198.023237 282.744095 
L 117.295964 384.22981 
z
" clip-path="url(#p8e59fde14a)" style="fill: #e6e6e6; stroke: #e6e6e6; stroke-linejoin: miter"/>
   </g>
   <g id="patch_5">
    <path d="M 166.909091 495.2 
C 184.036389 495.2 200.464504 488.071217 212.575332 475.383682 
C 224.686161 462.696147 231.490909 445.485741 231.490909 427.542857 
C 231.490909 409.599973 224.686161 392.389568 212.575332 379.702033 
C 200.464504 367.014498 184.036389 359.885714 166.909091 359.885714 
C 149.781793 359.885714 133.353678 367.014498 121.242849 379.702033 
C 109.13202 392.389568 102.327273 409.599973 102.327273 427.542857 
C 102.327273 445.485741 109.13202 462.696147 121.242849 475.383682 
C 133.353678 488.071217 149.781793 495.2 166.909091 495.2 
z
" clip-path="url(#p8e59fde14a)" style="fill: #e6e6e6; stroke: #e6e6e6; stroke-linejoin: miter"/>
   </g>
   <g id="patch_6">
    <path d="M 284.671604 381.484034 
L 365.398877 322.284034 
L 291.328396 211.430252 
L 210.601123 270.630252 
z
" clip-path="url(#p8e59fde14a)" style="fill: #e6e6e6; stroke: #e6e6e6; stroke-linejoin: miter"/>
   </g>
   <g id="patch_7">
    <path d="M 247.636364 393.714286 
C 264.763662 393.714286 281.191776 386.585502 293.302605 373.897967 
C 305.413434 361.210432 312.218182 344.000027 312.218182 326.057143 
C 312.218182 308.114259 305.413434 290.903853 293.302605 278.216318 
C 281.191776 265.528783 264.763662 258.4 247.636364 258.4 
C 230.509065 258.4 214.080951 265.528783 201.970122 278.216318 
C 189.859293 290.903853 183.054545 308.114259 183.054545 326.057143 
C 183.054545 344.000027 189.859293 361.210432 201.970122 373.897967 
C 214.080951 386.585502 230.509065 393.714286 247.636364 393.714286 
z
" clip-path="url(#p8e59fde14a)" style="fill: #e6e6e6; stroke: #e6e6e6; stroke-linejoin: miter"/>
   </g>
   <g id="patch_8">
    <path d="M 377.976763 310.17019 
L 458.704036 208.684476 
L 359.477782 122.058381 
L 278.750509 223.544095 
z
" clip-path="url(#p8e59fde14a)" style="fill: #e6e6e6; stroke: #e6e6e6; stroke-linejoin: miter"/>
   </g>
   <g id="patch_9">
    <path d="M 328.363636 334.514286 
C 345.490935 334.514286 361.919049 327.385502 374.029878 314.697967 
C 386.140707 302.010432 392.945455 284.800027 392.945455 266.857143 
C 392.945455 248.914259 386.140707 231.703853 374.029878 219.016318 
C 361.919049 206.328783 345.490935 199.2 328.363636 199.2 
C 311.236338 199.2 294.808224 206.328783 282.697395 219.016318 
C 270.586566 231.703853 263.781818 248.914259 263.781818 266.857143 
C 263.781818 284.800027 270.586566 302.010432 282.697395 314.697967 
C 294.808224 327.385502 311.236338 334.514286 328.363636 334.514286 
z
" clip-path="url(#p8e59fde14a)" style="fill: #e6e6e6; stroke: #e6e6e6; stroke-linejoin: miter"/>
   </g>
   <g id="patch_10">
    <path d="M 452.293868 215.660587 
L 533.02114 139.546301 
L 446.615223 38.967985 
L 365.88795 115.08227 
z
" clip-path="url(#p8e59fde14a)" style="fill: #e6e6e6; stroke: #e6e6e6; stroke-linejoin: miter"/>
   </g>
   <g id="patch_11">
    <path d="M 409.090909 233.028571 
C 426.218207 233.028571 442.646322 225.899788 454.757151 213.212253 
C 466.86798 200.524718 473.672727 183.314313 473.672727 165.371429 
C 473.672727 147.428545 466.86798 130.218139 454.757151 117.530604 
C 442.646322 104.843069 426.218207 97.714286 409.090909 97.714286 
C 391.963611 97.714286 375.535496 104.843069 363.424668 117.530604 
C 351.313839 130.218139 344.509091 147.428545 344.509091 165.371429 
C 344.509091 183.314313 351.313839 200.524718 363.424668 213.212253 
C 375.535496 225.899788 391.963611 233.028571 409.090909 233.028571 
z
" clip-path="url(#p8e59fde14a)" style="fill: #e6e6e6; stroke: #e6e6e6; stroke-linejoin: miter"/>
   </g>
   <g id="patch_12">
    <path d="M 489.818182 156.914286 
C 506.94548 156.914286 523.373595 149.785502 535.484423 137.097967 
C 547.595252 124.410432 554.4 107.200027 554.4 89.257143 
C 554.4 71.314259 547.595252 54.103853 535.484423 41.416318 
C 523.373595 28.728783 506.94548 21.6 489.818182 21.6 
C 472.690883 21.6 456.262769 28.728783 444.15194 41.416318 
C 432.041111 54.103853 425.236364 71.314259 425.236364 89.257143 
C 425.236364 107.200027 432.041111 124.410432 444.15194 137.097967 
C 456.262769 149.785502 472.690883 156.914286 489.818182 156.914286 
z
" clip-path="url(#p8e59fde14a)" style="fill: #e6e6e6; stroke: #e6e6e6; stroke-linejoin: miter"/>
   </g>
   <g id="PathCollection_1">
    <defs>
     <path id="m131402884d" d="M -4.472136 0 
L 4.472136 0 
M 0 4.472136 
L 0 -4.472136 
" style="stroke: #000000; stroke-width: 1.5"/>
    </defs>
    <g clip-path="url(#p8e59fde14a)">
     <use xlink:href="#m131402884d" x="86.181818" y="486.742857" style="stroke: #000000; stroke-width: 1.5"/>
     <use xlink:href="#m131402884d" x="166.909091" y="427.542857" style="stroke: #000000; stroke-width: 1.5"/>
     <use xlink:href="#m131402884d" x="247.636364" y="326.057143" style="stroke: #000000; stroke-width: 1.5"/>
     <use xlink:href="#m131402884d" x="328.363636" y="266.857143" style="stroke: #000000; stroke-width: 1.5"/>
     <use xlink:href="#m131402884d" x="409.090909" y="165.371429" style="stroke: #000000; stroke-width: 1.5"/>
     <use xlink:href="#m131402884d" x="489.818182" y="89.257143" style="stroke: #000000; stroke-width: 1.5"/>
    </g>
   </g>
   <g id="patch_13">
    <path d="M 187.581227 401.555029 
C 181.572106 396.308971 173.94344 393.524966 166.123632 393.724295 
C 158.303824 393.923624 150.813429 397.093019 145.054961 402.639037 
C 139.296494 408.185054 135.653287 415.738503 134.807502 423.885063 
C 133.961716 432.031623 135.969655 440.228988 140.455347 446.942269 
" clip-path="url(#p8e59fde14a)" style="fill: none; stroke: #000000; stroke-linejoin: miter"/>
   </g>
   <g id="patch_14">
    <path d="M 226.964227 352.044971 
C 232.973348 357.291029 240.602015 360.075034 248.421823 359.875705 
C 256.241631 359.676376 263.732026 356.506981 269.490493 350.960963 
C 275.248961 345.414946 278.892167 337.861497 279.737953 329.714937 
C 280.583738 321.568377 278.5758 313.371012 274.090107 306.657731 
" clip-path="url(#p8e59fde14a)" style="fill: none; stroke: #000000; stroke-linejoin: miter"/>
   </g>
   <g id="patch_15">
    <path d="M 349.035773 240.869314 
C 343.026652 235.623257 335.397985 232.839251 327.578177 233.038581 
C 319.758369 233.23791 312.267974 236.407305 306.509507 241.953322 
C 300.751039 247.49934 297.107833 255.052789 296.262047 263.199349 
C 295.416262 271.345908 297.4242 279.543273 301.909893 286.256555 
" clip-path="url(#p8e59fde14a)" style="fill: none; stroke: #000000; stroke-linejoin: miter"/>
   </g>
   <g id="patch_16">
    <path d="M 388.418773 191.359257 
C 394.688601 196.832917 402.711936 199.61786 410.86115 199.149127 
C 419.010364 198.680395 426.694439 194.991983 432.354572 188.832127 
C 438.014705 182.672271 441.240396 174.487713 441.377276 165.938786 
C 441.514157 157.389858 438.5523 149.096569 433.092553 142.741307 
" clip-path="url(#p8e59fde14a)" style="fill: none; stroke: #000000; stroke-linejoin: miter"/>
   </g>
   <g id="line2d_1">
    <path d="M 86.181818 486.742857 
L 88.83761 488.673385 
L 90.100776 488.704877 
L 89.627365 486.36831 
L 88.381106 482.977858 
L 87.907695 480.641292 
L 89.170861 480.672784 
L 91.826653 482.603311 
L 94.482445 484.533839 
L 95.745611 484.565331 
L 95.2722 482.228765 
L 94.025941 478.838313 
L 93.55253 476.501746 
L 94.815696 476.533238 
L 97.471488 478.463766 
L 100.12728 480.394293 
L 101.390446 480.425785 
L 100.917035 478.089219 
L 99.670776 474.698767 
L 99.197365 472.362201 
L 100.460531 472.393693 
L 103.116323 474.32422 
L 105.772115 476.254748 
L 107.035281 476.28624 
L 106.56187 473.949673 
L 105.315611 470.559221 
L 104.8422 468.222655 
L 106.105366 468.254147 
L 108.761158 470.184675 
L 111.41695 472.115202 
L 112.680116 472.146694 
L 112.206705 469.810128 
L 110.960446 466.419676 
L 110.487035 464.083109 
L 111.750201 464.114601 
L 114.405993 466.045129 
L 117.061785 467.975657 
L 118.324951 468.007149 
L 117.85154 465.670582 
L 116.605281 462.28013 
L 116.13187 459.943564 
L 117.395036 459.975056 
L 120.050828 461.905583 
L 122.70662 463.836111 
L 123.969786 463.867603 
L 123.496375 461.531036 
L 122.250116 458.140585 
L 121.776705 455.804018 
L 123.039871 455.83551 
L 125.695663 457.766038 
L 128.351455 459.696565 
L 129.614621 459.728057 
L 129.14121 457.391491 
L 127.894951 454.001039 
L 127.42154 451.664472 
L 128.684706 451.695964 
L 131.340498 453.626492 
L 133.99629 455.55702 
L 135.259456 455.588512 
L 134.786045 453.251945 
L 133.539786 449.861493 
L 133.066375 447.524927 
L 134.329541 447.556419 
L 136.985333 449.486946 
L 139.641125 451.417474 
L 140.904291 451.448966 
L 140.43088 449.112399 
L 139.184621 445.721948 
L 138.71121 443.385381 
L 139.974376 443.416873 
L 142.630168 445.347401 
L 145.28596 447.277928 
L 146.549126 447.30942 
L 146.075715 444.972854 
L 144.829456 441.582402 
L 144.356045 439.245835 
L 145.619211 439.277327 
L 148.275003 441.207855 
L 150.930795 443.138383 
L 152.193961 443.169875 
L 151.72055 440.833308 
L 150.474291 437.442856 
L 150.00088 435.10629 
L 151.264046 435.137782 
L 153.919838 437.068309 
L 156.57563 438.998837 
L 157.838796 439.030329 
L 157.365385 436.693762 
L 156.119126 433.303311 
L 155.645715 430.966744 
L 156.908881 430.998236 
L 159.564673 432.928764 
L 162.220465 434.859291 
L 163.483631 434.890783 
L 163.01022 432.554217 
L 161.76396 429.163765 
L 161.29055 426.827198 
L 162.553716 426.858691 
L 165.209508 428.789218 
L 167.8653 430.719746 
L 169.215239 430.687604 
L 168.889846 427.840667 
L 166.795907 424.897244 
L 165.724743 422.767392 
L 166.951737 422.465619 
L 170.021709 423.629852 
L 173.091681 424.794085 
L 174.318674 424.492312 
L 173.247511 422.36246 
L 171.153572 419.419036 
L 170.082408 417.289184 
L 171.309402 416.987411 
L 174.379374 418.151644 
L 177.449346 419.315878 
L 178.676339 419.014105 
L 177.605176 416.884253 
L 175.511236 413.940829 
L 174.440073 411.810977 
L 175.667067 411.509204 
L 178.737039 412.673437 
L 181.807011 413.83767 
L 183.034004 413.535897 
L 181.962841 411.406045 
L 179.868901 408.462621 
L 178.797738 406.332769 
L 180.024731 406.030997 
L 183.094704 407.19523 
L 186.164676 408.359463 
L 187.391669 408.05769 
L 186.320506 405.927838 
L 184.226566 402.984414 
L 183.155403 400.854562 
L 184.382396 400.552789 
L 187.452369 401.717022 
L 190.522341 402.881255 
L 191.749334 402.579483 
L 190.678171 400.449631 
L 188.584231 397.506207 
L 187.513068 395.376355 
L 188.740061 395.074582 
L 191.810034 396.238815 
L 194.880006 397.403048 
L 196.106999 397.101275 
L 195.035836 394.971423 
L 192.941896 392.027999 
L 191.870733 389.898147 
L 193.097726 389.596375 
L 196.167699 390.760608 
L 199.237671 391.924841 
L 200.464664 391.623068 
L 199.393501 389.493216 
L 197.299561 386.549792 
L 196.228398 384.41994 
L 197.455391 384.118167 
L 200.525363 385.2824 
L 203.595336 386.446633 
L 204.822329 386.144861 
L 203.751166 384.015008 
L 201.657226 381.071585 
L 200.586063 378.941733 
L 201.813056 378.63996 
L 204.883028 379.804193 
L 207.953001 380.968426 
L 209.179994 380.666653 
L 208.108831 378.536801 
L 206.014891 375.593377 
L 204.943728 373.463525 
L 206.170721 373.161752 
L 209.240693 374.325985 
L 212.310666 375.490218 
L 213.537659 375.188446 
L 212.466496 373.058594 
L 210.372556 370.11517 
L 209.301393 367.985318 
L 210.528386 367.683545 
L 213.598358 368.847778 
L 216.66833 370.012011 
L 217.895324 369.710238 
L 216.824161 367.580386 
L 214.730221 364.636962 
L 213.659058 362.50711 
L 214.886051 362.205338 
L 217.956023 363.369571 
L 221.025995 364.533804 
L 222.252989 364.232031 
L 221.181825 362.102179 
L 219.087886 359.158755 
L 218.016723 357.028903 
L 219.243716 356.72713 
L 222.313688 357.891363 
L 225.38366 359.055596 
L 226.610654 358.753824 
L 225.53949 356.623972 
L 223.445551 353.680548 
L 222.374388 351.550696 
L 223.601381 351.248923 
L 226.671353 352.413156 
L 229.741325 353.577389 
L 230.968319 353.275616 
L 229.897155 351.145764 
L 227.803216 348.20234 
L 226.732053 346.072488 
L 227.959046 345.770716 
L 231.029018 346.934949 
L 234.09899 348.099182 
L 235.325984 347.797409 
L 234.25482 345.667557 
L 232.160881 342.724133 
L 231.089718 340.594281 
L 232.316711 340.292508 
L 235.386683 341.456741 
L 238.456655 342.620974 
L 239.683649 342.319201 
L 238.612485 340.189349 
L 236.518546 337.245926 
L 235.447383 335.116074 
L 236.674376 334.814301 
L 239.744348 335.978534 
L 242.81432 337.142767 
L 244.041314 336.840994 
L 242.97015 334.711142 
L 240.876211 331.767718 
L 239.805047 329.637866 
L 241.032041 329.336093 
L 244.102013 330.500326 
L 247.171985 331.664559 
L 248.398979 331.362787 
L 247.327815 329.232935 
L 245.233876 326.289511 
L 244.584445 323.62948 
L 246.593382 322.943888 
L 249.249174 324.874416 
L 251.904966 326.804943 
L 253.168131 326.836435 
L 252.694721 324.499869 
L 251.448461 321.109417 
L 250.975051 318.77285 
L 252.238217 318.804342 
L 254.894009 320.73487 
L 257.549801 322.665397 
L 258.812966 322.69689 
L 258.339556 320.360323 
L 257.093296 316.969871 
L 256.619886 314.633305 
L 257.883052 314.664797 
L 260.538844 316.595324 
L 263.194635 318.525852 
L 264.457801 318.557344 
L 263.984391 316.220777 
L 262.738131 312.830326 
L 262.264721 310.493759 
L 263.527887 310.525251 
L 266.183679 312.455779 
L 268.83947 314.386306 
L 270.102636 314.417798 
L 269.629226 312.081232 
L 268.382966 308.69078 
L 267.909556 306.354213 
L 269.172722 306.385705 
L 271.828514 308.316233 
L 274.484305 310.246761 
L 275.747471 310.278253 
L 275.274061 307.941686 
L 274.027801 304.551234 
L 273.554391 302.214668 
L 274.817557 302.24616 
L 277.473348 304.176687 
L 280.12914 306.107215 
L 281.392306 306.138707 
L 280.918896 303.80214 
L 279.672636 300.411689 
L 279.199226 298.075122 
L 280.462392 298.106614 
L 283.118183 300.037142 
L 285.773975 301.967669 
L 287.037141 301.999161 
L 286.563731 299.662595 
L 285.317471 296.272143 
L 284.844061 293.935576 
L 286.107227 293.967068 
L 288.763018 295.897596 
L 291.41881 297.828124 
L 292.681976 297.859616 
L 292.208566 295.523049 
L 290.962306 292.132597 
L 290.488896 289.796031 
L 291.752061 289.827523 
L 294.407853 291.75805 
L 297.063645 293.688578 
L 298.326811 293.72007 
L 297.853401 291.383503 
L 296.607141 287.993052 
L 296.133731 285.656485 
L 297.396896 285.687977 
L 300.052688 287.618505 
L 302.70848 289.549032 
L 303.971646 289.580524 
L 303.498236 287.243958 
L 302.251976 283.853506 
L 301.778566 281.516939 
L 303.041731 281.548431 
L 305.697523 283.478959 
L 308.353315 285.409487 
L 309.616481 285.440979 
L 309.143071 283.104412 
L 307.896811 279.71396 
L 307.423401 277.377394 
L 308.686566 277.408886 
L 311.342358 279.339413 
L 313.99815 281.269941 
L 315.261316 281.301433 
L 314.787906 278.964866 
L 313.541646 275.574415 
L 313.068236 273.237848 
L 314.331401 273.26934 
L 316.987193 275.199868 
L 319.642985 277.130395 
L 320.906151 277.161887 
L 320.432741 274.825321 
L 319.186481 271.434869 
L 318.71307 269.098303 
L 319.976236 269.129795 
L 322.632028 271.060322 
L 325.28782 272.99085 
L 326.550986 273.022342 
L 326.077576 270.685775 
L 324.831316 267.295323 
L 324.357905 264.958757 
L 325.621071 264.990249 
L 328.363636 266.857143 
L 331.433608 268.021376 
L 332.660602 267.719603 
L 331.589439 265.589751 
L 329.495499 262.646327 
L 328.424336 260.516475 
L 329.651329 260.214702 
L 332.721301 261.378935 
L 335.791273 262.543169 
L 337.018267 262.241396 
L 335.947104 260.111544 
L 333.853164 257.16812 
L 332.782001 255.038268 
L 334.008994 254.736495 
L 337.078966 255.900728 
L 340.148938 257.064961 
L 341.375932 256.763188 
L 340.304768 254.633336 
L 338.210829 251.689912 
L 337.139666 249.56006 
L 338.366659 249.258288 
L 341.436631 250.422521 
L 344.506603 251.586754 
L 345.733597 251.284981 
L 344.662433 249.155129 
L 342.568494 246.211705 
L 341.497331 244.081853 
L 342.724324 243.78008 
L 345.794296 244.944313 
L 348.864268 246.108546 
L 350.091262 245.806774 
L 349.020098 243.676922 
L 346.926159 240.733498 
L 345.854996 238.603646 
L 347.081989 238.301873 
L 350.151961 239.466106 
L 353.221933 240.630339 
L 354.448927 240.328566 
L 353.377763 238.198714 
L 351.283824 235.25529 
L 350.212661 233.125438 
L 351.439654 232.823666 
L 354.509626 233.987899 
L 357.579598 235.152132 
L 358.806592 234.850359 
L 357.735428 232.720507 
L 355.641489 229.777083 
L 354.570326 227.647231 
L 355.797319 227.345458 
L 358.867291 228.509691 
L 361.937263 229.673924 
L 363.164257 229.372151 
L 362.093093 227.242299 
L 359.999154 224.298876 
L 358.92799 222.169024 
L 360.154984 221.867251 
L 363.224956 223.031484 
L 366.294928 224.195717 
L 367.521922 223.893944 
L 366.450758 221.764092 
L 364.356819 218.820668 
L 363.285655 216.690816 
L 364.512649 216.389043 
L 367.582621 217.553276 
L 370.652593 218.717509 
L 371.879587 218.415737 
L 370.808423 216.285885 
L 368.714484 213.342461 
L 367.64332 211.212609 
L 368.870314 210.910836 
L 371.940286 212.075069 
L 375.010258 213.239302 
L 376.237252 212.937529 
L 375.166088 210.807677 
L 373.072149 207.864253 
L 372.000985 205.734401 
L 373.227979 205.432629 
L 376.297951 206.596862 
L 379.367923 207.761095 
L 380.594917 207.459322 
L 379.523753 205.32947 
L 377.429814 202.386046 
L 376.35865 200.256194 
L 377.585644 199.954421 
L 380.655616 201.118654 
L 383.725588 202.282887 
L 384.952581 201.981115 
L 383.881418 199.851263 
L 381.787479 196.907839 
L 380.716315 194.777987 
L 381.943309 194.476214 
L 385.013281 195.640447 
L 388.083253 196.80468 
L 389.310246 196.502907 
L 388.239083 194.373055 
L 386.145144 191.429631 
L 385.07398 189.299779 
L 386.300974 188.998007 
L 389.370946 190.16224 
L 392.440918 191.326473 
L 393.667911 191.0247 
L 392.596748 188.894848 
L 390.502809 185.951424 
L 389.431645 183.821572 
L 390.658639 183.519799 
L 393.728611 184.684032 
L 396.798583 185.848265 
L 398.025576 185.546492 
L 396.954413 183.41664 
L 394.860474 180.473217 
L 393.78931 178.343364 
L 395.016304 178.041592 
L 398.086276 179.205825 
L 401.156248 180.370058 
L 402.383241 180.068285 
L 401.312078 177.938433 
L 399.218139 174.995009 
L 398.146975 172.865157 
L 399.373969 172.563384 
L 402.443941 173.727617 
L 405.513913 174.89185 
L 406.740906 174.590078 
L 405.669743 172.460226 
L 403.575803 169.516802 
L 402.50464 167.38695 
L 403.731634 167.085177 
L 406.801606 168.24941 
L 409.871578 169.413643 
L 411.098571 169.11187 
L 410.449141 166.45184 
L 408.627899 163.422659 
L 407.870836 161.162014 
L 409.128291 161.037981 
L 412.001267 162.627377 
L 414.874242 164.216773 
L 416.131698 164.09274 
L 415.374634 161.832095 
L 413.721025 158.620569 
L 412.963961 156.359924 
L 414.221417 156.235891 
L 417.094393 157.825287 
L 419.967368 159.414683 
L 421.224824 159.29065 
L 420.46776 157.030005 
L 418.814151 153.818479 
L 418.057087 151.557834 
L 419.314543 151.433801 
L 422.187518 153.023197 
L 425.060494 154.612593 
L 426.31795 154.48856 
L 425.560886 152.227915 
L 423.907277 149.016389 
L 423.150213 146.755744 
L 424.407669 146.631711 
L 427.280644 148.221107 
L 430.153619 149.810503 
L 431.411075 149.68647 
L 430.654012 147.425825 
L 429.000403 144.214299 
L 428.243339 141.953654 
L 429.500795 141.82962 
L 432.37377 143.419017 
L 435.246745 145.008413 
L 436.504201 144.88438 
L 435.747138 142.623735 
L 434.093528 139.412208 
L 433.336465 137.151564 
L 434.593921 137.02753 
L 437.466896 138.616927 
L 440.339871 140.206323 
L 441.597327 140.08229 
L 440.840263 137.821645 
L 439.186654 134.610118 
L 438.429591 132.349473 
L 439.687047 132.22544 
L 442.560022 133.814837 
L 445.432997 135.404233 
L 446.690453 135.2802 
L 445.933389 133.019555 
L 444.27978 129.808028 
L 443.522716 127.547383 
L 444.780172 127.42335 
L 447.653148 129.012747 
L 450.526123 130.602143 
L 451.783579 130.47811 
L 451.026515 128.217465 
L 449.372906 125.005938 
L 448.615842 122.745293 
L 449.873298 122.62126 
L 452.746273 124.210656 
L 455.619249 125.800053 
L 456.876705 125.67602 
L 456.119641 123.415375 
L 454.466032 120.203848 
L 453.708968 117.943203 
L 454.966424 117.81917 
L 457.839399 119.408566 
L 460.712375 120.997963 
L 461.96983 120.87393 
L 461.212767 118.613285 
L 459.559158 115.401758 
L 458.802094 113.141113 
L 460.05955 113.01708 
L 462.932525 114.606476 
L 465.8055 116.195873 
L 467.062956 116.071839 
L 466.305893 113.811195 
L 464.652283 110.599668 
L 463.89522 108.339023 
L 465.152676 108.21499 
L 468.025651 109.804386 
L 470.898626 111.393783 
L 472.156082 111.269749 
L 471.399019 109.009104 
L 469.745409 105.797578 
L 468.988346 103.536933 
L 470.245802 103.4129 
L 473.118777 105.002296 
L 475.991752 106.591692 
L 477.249208 106.467659 
L 476.492144 104.207014 
L 474.838535 100.995488 
L 474.081471 98.734843 
L 475.338927 98.61081 
L 478.211903 100.200206 
L 481.084878 101.789602 
L 482.342334 101.665569 
L 481.58527 99.404924 
L 479.931661 96.193398 
L 479.174597 93.932753 
L 480.432053 93.80872 
L 483.305029 95.398116 
L 486.178004 96.987512 
L 487.43546 96.863479 
L 486.678396 94.602834 
L 485.024787 91.391308 
L 484.267723 89.130663 
L 485.525179 89.00663 
L 488.398154 90.596026 
L 491.963568 91.532552 
" clip-path="url(#p8e59fde14a)" style="fill: none; stroke: #808080; stroke-linecap: square"/>
   </g>
   <g id="text_1">
    <!-- $\vec x_0$ -->
    <g transform="translate(70.036364 469.828571) scale(0.2 -0.2)">
     <defs>
      <path id="CMMI12-7e" d="M 3424 3835 
C 3347 3764 3110 3540 3110 3451 
C 3110 3387 3168 3329 3232 3329 
C 3290 3329 3315 3368 3360 3432 
C 3514 3624 3686 3745 3834 3828 
C 3898 3867 3942 3886 3942 3956 
C 3942 4014 3891 4046 3853 4078 
C 3674 4200 3629 4372 3610 4449 
C 3590 4500 3571 4577 3482 4577 
C 3443 4577 3366 4552 3366 4456 
C 3366 4398 3405 4244 3526 4072 
L 1376 4072 
C 1267 4072 1158 4072 1158 3950 
C 1158 3835 1274 3835 1376 3835 
L 3424 3835 
z
" transform="scale(0.015625)"/>
      <path id="CMMI12-78" d="M 3034 2606 
C 2829 2567 2752 2414 2752 2293 
C 2752 2139 2874 2088 2963 2088 
C 3155 2088 3290 2254 3290 2427 
C 3290 2695 2982 2816 2714 2816 
C 2323 2816 2106 2433 2048 2312 
C 1901 2816 1504 2816 1389 2816 
C 736 2816 390 1980 390 1839 
C 390 1814 416 1782 461 1782 
C 512 1782 525 1820 538 1846 
C 755 2555 1184 2689 1370 2689 
C 1658 2689 1715 2420 1715 2267 
C 1715 2127 1677 1980 1600 1673 
L 1382 798 
C 1286 415 1101 64 762 64 
C 730 64 570 64 435 147 
C 666 192 717 383 717 460 
C 717 588 621 664 499 664 
C 346 664 179 530 179 326 
C 179 57 480 -64 755 -64 
C 1062 -64 1280 179 1414 441 
C 1517 64 1837 -64 2074 -64 
C 2726 -64 3072 773 3072 913 
C 3072 945 3046 971 3008 971 
C 2950 971 2944 939 2925 888 
C 2752 326 2381 64 2093 64 
C 1869 64 1747 230 1747 492 
C 1747 632 1773 734 1875 1156 
L 2099 2024 
C 2195 2408 2413 2689 2707 2689 
C 2720 2689 2899 2689 3034 2606 
z
" transform="scale(0.015625)"/>
      <path id="CMR17-30" d="M 2688 2025 
C 2688 2416 2682 3080 2413 3591 
C 2176 4039 1798 4198 1466 4198 
C 1158 4198 768 4058 525 3597 
C 269 3118 243 2524 243 2025 
C 243 1661 250 1106 448 619 
C 723 -39 1216 -128 1466 -128 
C 1760 -128 2208 -7 2470 600 
C 2662 1042 2688 1559 2688 2025 
z
M 1466 -26 
C 1056 -26 813 325 723 812 
C 653 1188 653 1738 653 2096 
C 653 2588 653 2997 736 3387 
C 858 3929 1216 4096 1466 4096 
C 1728 4096 2067 3923 2189 3400 
C 2272 3036 2278 2607 2278 2096 
C 2278 1680 2278 1169 2202 792 
C 2067 95 1690 -26 1466 -26 
z
" transform="scale(0.015625)"/>
     </defs>
     <use xlink:href="#CMMI12-7e" transform="scale(0.996264)"/>
     <use xlink:href="#CMMI12-78" transform="translate(1.622927 0) scale(0.996264)"/>
     <use xlink:href="#CMR17-30" transform="translate(57.056987 -14.943915) scale(0.697382)"/>
    </g>
   </g>
   <g id="text_2">
    <!-- $\vec x_5$ -->
    <g transform="translate(473.672727 72.342857) scale(0.2 -0.2)">
     <defs>
      <path id="CMR17-35" d="M 730 3692 
C 794 3666 1056 3584 1325 3584 
C 1920 3584 2246 3911 2432 4100 
C 2432 4157 2432 4192 2394 4192 
C 2387 4192 2374 4192 2323 4163 
C 2099 4058 1837 3973 1517 3973 
C 1325 3973 1037 3999 723 4139 
C 653 4171 640 4171 634 4171 
C 602 4171 595 4164 595 4037 
L 595 2203 
C 595 2089 595 2057 659 2057 
C 691 2057 704 2070 736 2114 
C 941 2401 1222 2522 1542 2522 
C 1766 2522 2246 2382 2246 1289 
C 2246 1085 2246 715 2054 421 
C 1894 159 1645 25 1370 25 
C 947 25 518 320 403 814 
C 429 807 480 795 506 795 
C 589 795 749 840 749 1038 
C 749 1210 627 1280 506 1280 
C 358 1280 262 1190 262 1011 
C 262 454 704 -128 1382 -128 
C 2042 -128 2669 440 2669 1264 
C 2669 2030 2170 2624 1549 2624 
C 1222 2624 947 2503 730 2274 
L 730 3692 
z
" transform="scale(0.015625)"/>
     </defs>
     <use xlink:href="#CMMI12-7e" transform="scale(0.996264)"/>
     <use xlink:href="#CMMI12-78" transform="translate(1.622927 0) scale(0.996264)"/>
     <use xlink:href="#CMR17-35" transform="translate(57.056987 -14.943915) scale(0.697382)"/>
    </g>
   </g>
   <g id="text_3">
    <!-- $\vec x_1$ -->
    <g transform="translate(168.716234 444.975449) scale(0.2 -0.2)">
     <defs>
      <path id="CMR17-31" d="M 1702 4058 
C 1702 4192 1696 4192 1606 4192 
C 1357 3916 979 3827 621 3827 
C 602 3827 570 3827 563 3808 
C 557 3795 557 3782 557 3648 
C 755 3648 1088 3686 1344 3839 
L 1344 461 
C 1344 236 1331 160 781 160 
L 589 160 
L 589 0 
C 896 0 1216 0 1523 0 
C 1830 0 2150 0 2458 0 
L 2458 160 
L 2266 160 
C 1715 160 1702 230 1702 458 
L 1702 4058 
z
" transform="scale(0.015625)"/>
     </defs>
     <use xlink:href="#CMMI12-7e" transform="scale(0.996264)"/>
     <use xlink:href="#CMMI12-78" transform="translate(1.622927 0) scale(0.996264)"/>
     <use xlink:href="#CMR17-31" transform="translate(57.056987 -14.943915) scale(0.697382)"/>
    </g>
   </g>
   <g id="text_4">
    <!-- $\alpha_1$ -->
    <g transform="translate(146.363129 420.071628) scale(0.2 -0.2)">
     <defs>
      <path id="CMMI12-b" d="M 2963 1616 
C 2963 2235 2611 2815 1933 2815 
C 1094 2815 256 1902 256 996 
C 256 441 602 -64 1254 -64 
C 1651 -64 2125 89 2579 472 
C 2669 115 2867 -64 3142 -64 
C 3488 -64 3661 294 3661 377 
C 3661 434 3616 434 3597 434 
C 3546 434 3539 415 3520 364 
C 3462 204 3315 64 3162 64 
C 2963 64 2963 472 2963 862 
C 3616 1641 3770 2446 3770 2452 
C 3770 2510 3718 2510 3699 2510 
C 3642 2510 3635 2491 3610 2376 
C 3526 2095 3360 1597 2963 1073 
L 2963 1616 
z
M 2560 626 
C 1997 121 1491 64 1267 64 
C 813 64 685 466 685 766 
C 685 1040 826 1692 1024 2044 
C 1286 2491 1645 2688 1933 2688 
C 2554 2688 2554 1877 2554 1341 
C 2554 1182 2547 1016 2547 856 
C 2547 728 2554 696 2560 626 
z
" transform="scale(0.015625)"/>
     </defs>
     <use xlink:href="#CMMI12-b" transform="scale(0.996264)"/>
     <use xlink:href="#CMR17-31" transform="translate(62.046728 -14.943915) scale(0.697382)"/>
    </g>
   </g>
   <g id="text_5">
    <!-- $\vec x_2$ -->
    <g transform="translate(227.589377 318.585914) scale(0.2 -0.2)">
     <defs>
      <path id="CMR17-32" d="M 2669 989 
L 2554 989 
C 2490 536 2438 459 2413 420 
C 2381 369 1920 369 1830 369 
L 602 369 
C 832 619 1280 1072 1824 1597 
C 2214 1967 2669 2402 2669 3035 
C 2669 3790 2067 4224 1395 4224 
C 691 4224 262 3604 262 3030 
C 262 2780 448 2748 525 2748 
C 589 2748 781 2787 781 3010 
C 781 3207 614 3264 525 3264 
C 486 3264 448 3258 422 3245 
C 544 3790 915 4058 1306 4058 
C 1862 4058 2227 3617 2227 3035 
C 2227 2479 1901 2000 1536 1584 
L 262 146 
L 262 0 
L 2515 0 
L 2669 989 
z
" transform="scale(0.015625)"/>
     </defs>
     <use xlink:href="#CMMI12-7e" transform="scale(0.996264)"/>
     <use xlink:href="#CMMI12-78" transform="translate(1.622927 0) scale(0.996264)"/>
     <use xlink:href="#CMR17-32" transform="translate(57.056987 -14.943915) scale(0.697382)"/>
    </g>
   </g>
   <g id="text_6">
    <!-- $\alpha_2$ -->
    <g transform="translate(248.944531 343.489735) scale(0.2 -0.2)">
     <use xlink:href="#CMMI12-b" transform="scale(0.996264)"/>
     <use xlink:href="#CMR17-32" transform="translate(62.046728 -14.943915) scale(0.697382)"/>
    </g>
   </g>
   <g id="text_7">
    <!-- $\vec x_3$ -->
    <g transform="translate(330.170779 284.289735) scale(0.2 -0.2)">
     <defs>
      <path id="CMR17-33" d="M 1414 2157 
C 1984 2157 2234 1662 2234 1090 
C 2234 320 1824 25 1453 25 
C 1114 25 563 194 390 693 
C 422 680 454 680 486 680 
C 640 680 755 782 755 948 
C 755 1133 614 1216 486 1216 
C 378 1216 211 1165 211 926 
C 211 335 787 -128 1466 -128 
C 2176 -128 2720 430 2720 1085 
C 2720 1707 2208 2157 1600 2227 
C 2086 2328 2554 2756 2554 3329 
C 2554 3820 2048 4179 1472 4179 
C 890 4179 378 3829 378 3329 
C 378 3110 544 3072 627 3072 
C 762 3072 877 3155 877 3321 
C 877 3486 762 3569 627 3569 
C 602 3569 570 3569 544 3557 
C 730 3959 1235 4032 1459 4032 
C 1683 4032 2106 3925 2106 3320 
C 2106 3143 2080 2828 1862 2550 
C 1670 2304 1453 2304 1242 2284 
C 1210 2284 1062 2269 1037 2269 
C 992 2263 966 2257 966 2208 
C 966 2163 973 2157 1101 2157 
L 1414 2157 
z
" transform="scale(0.015625)"/>
     </defs>
     <use xlink:href="#CMMI12-7e" transform="scale(0.996264)"/>
     <use xlink:href="#CMMI12-78" transform="translate(1.622927 0) scale(0.996264)"/>
     <use xlink:href="#CMR17-33" transform="translate(57.056987 -14.943915) scale(0.697382)"/>
    </g>
   </g>
   <g id="text_8">
    <!-- $\alpha_3$ -->
    <g transform="translate(307.817674 259.385914) scale(0.2 -0.2)">
     <use xlink:href="#CMMI12-b" transform="scale(0.996264)"/>
     <use xlink:href="#CMR17-33" transform="translate(62.046728 -14.943915) scale(0.697382)"/>
    </g>
   </g>
   <g id="text_9">
    <!-- $\vec x_4$ -->
    <g transform="translate(388.339156 158.621761) scale(0.2 -0.2)">
     <defs>
      <path id="CMR17-34" d="M 2150 4122 
C 2150 4256 2144 4256 2029 4256 
L 128 1254 
L 128 1088 
L 1779 1088 
L 1779 457 
C 1779 224 1766 160 1318 160 
L 1197 160 
L 1197 0 
C 1402 0 1747 0 1965 0 
C 2182 0 2528 0 2733 0 
L 2733 160 
L 2611 160 
C 2163 160 2150 224 2150 457 
L 2150 1088 
L 2803 1088 
L 2803 1254 
L 2150 1254 
L 2150 4122 
z
M 1798 3703 
L 1798 1254 
L 256 1254 
L 1798 3703 
z
" transform="scale(0.015625)"/>
     </defs>
     <use xlink:href="#CMMI12-7e" transform="scale(0.996264)"/>
     <use xlink:href="#CMMI12-78" transform="translate(1.622927 0) scale(0.996264)"/>
     <use xlink:href="#CMR17-34" transform="translate(57.056987 -14.943915) scale(0.697382)"/>
    </g>
   </g>
   <g id="text_10">
    <!-- $\alpha_4$ -->
    <g transform="translate(411.103843 182.082459) scale(0.2 -0.2)">
     <use xlink:href="#CMMI12-b" transform="scale(0.996264)"/>
     <use xlink:href="#CMR17-34" transform="translate(62.046728 -14.943915) scale(0.697382)"/>
    </g>
   </g>
  </g>
 </g>
 <defs>
  <clipPath id="p8e59fde14a">
   <rect x="21.6" y="21.6" width="532.8" height="532.8"/>
  </clipPath>
 </defs>
</svg>
